<?xml version="1.0" encoding="utf-8"?>
<!-- Generator: Adobe Illustrator 27.3.1, SVG Export Plug-In . SVG Version: 6.00 Build 0)  -->
<svg version="1.1" id="Layer_1" xmlns="http://www.w3.org/2000/svg" xmlns:xlink="http://www.w3.org/1999/xlink" x="0px" y="0px"
	 viewBox="0 0 880 643" style="enable-background:new 0 0 880 643;" xml:space="preserve">
<style type="text/css">
	.st0{fill:#ED751C;}
	.st1{fill:#1F628E;}
	.st2{fill:none;}
	.st3{fill:#FFC724;}
	.st4{fill-rule:evenodd;clip-rule:evenodd;fill:#FFC724;}
	.st5{fill-rule:evenodd;clip-rule:evenodd;fill:#ED751C;}
	.st6{fill-rule:evenodd;clip-rule:evenodd;fill:none;}
</style>
<path class="st0" d="M228.27-979.79c0,0,223.33-30.4,264.13,122h91.2C583.6-857.79,500.53-1062.19,228.27-979.79z"/>
<path class="st1" d="M433.07-915.79c0,0-149.87-148.8-399.47,58h77.6C111.2-857.79,274.93-990.19,433.07-915.79z"/>
<path class="st1" d="M103.2-553.39H33.6c0,0,48.8,146.4,292.8,77.6C326.4-475.79,153.6-442.19,103.2-553.39z"/>
<path class="st0" d="M80.8-469.39c0,0,222.4,105.6,391.2-84h92.8C564.8-553.39,364.8-290.99,80.8-469.39z"/>
<g>
	
		<text transform="matrix(1.0613 0 0 1 675.1462 -691.9877)" class="st1" style="font-family:'CocogooseProTrial-Regular'; font-size:211.6418px;">STONE GOLD</text>
</g>
<g>
	
		<text transform="matrix(1.0613 0 0 1 681.0622 -586.2434)" class="st1" style="font-family:'CocogooseProTrial-Light'; font-size:70.8879px; letter-spacing:48.05;">Tourism</text>
</g>
<g>
	<g>
		<path class="st1" d="M152.24,574.22c-3.59-1.47-6.73-3.62-9.4-6.45c-0.3-0.33-0.45-0.65-0.45-0.96c0-0.36,0.19-0.71,0.57-1.07
			l6.7-5.99c0.33-0.31,0.67-0.46,1.02-0.46c0.4,0,0.77,0.18,1.1,0.53c1.61,1.57,3.42,2.75,5.41,3.55c1.99,0.8,4.06,1.19,6.21,1.19
			c2.14,0,3.75-0.34,4.81-1.03c1.06-0.69,1.59-1.63,1.59-2.82c0-0.81-0.23-1.51-0.7-2.1c-0.47-0.59-1.36-1.19-2.69-1.78
			s-3.26-1.25-5.81-1.96c-4.21-1.17-7.97-3.02-11.26-5.58c-3.29-2.55-4.94-6.01-4.94-10.36c0-2.59,0.69-4.98,2.08-7.17
			c1.39-2.19,3.51-3.94,6.36-5.26c2.85-1.32,6.36-1.98,10.52-1.98c3.51,0,6.86,0.59,10.06,1.78s6.05,2.79,8.55,4.81
			c0.38,0.31,0.57,0.65,0.57,1.03c0,0.33-0.15,0.67-0.45,1l-6.13,6.49c-0.33,0.38-0.69,0.57-1.1,0.57c-0.33,0-0.67-0.13-1.02-0.39
			c-1.41-1.05-3.01-1.93-4.81-2.66c-1.79-0.72-3.56-1.09-5.3-1.09c-3.56,0-5.34,0.99-5.34,2.96c0,0.83,0.29,1.53,0.87,2.1
			c0.58,0.57,1.36,1.06,2.33,1.46c0.97,0.4,2.47,0.94,4.48,1.6c0.28,0.07,0.69,0.2,1.25,0.39c3.58,1.19,6.55,2.46,8.89,3.82
			c2.35,1.35,4.16,3.01,5.45,4.97c1.29,1.96,1.93,4.32,1.93,7.08c0,3.19-0.82,5.98-2.46,8.4c-1.64,2.41-3.96,4.28-6.96,5.6
			s-6.48,1.98-10.44,1.98C159.66,576.43,155.83,575.7,152.24,574.22z"/>
		<path class="st1" d="M212.34,575.58h-10.6c-1.01,0-1.51-0.48-1.51-1.43v-36.72h-12.75c-1.01,0-1.51-0.47-1.51-1.43v-9.09
			c0-0.95,0.5-1.43,1.51-1.43h39.16c1.01,0,1.51,0.48,1.51,1.43V536c0,0.95-0.5,1.43-1.51,1.43h-12.79v36.72
			C213.86,575.1,213.35,575.58,212.34,575.58z"/>
		<path class="st1" d="M243.16,572.98c-4.23-2.33-7.56-5.48-9.99-9.45c-2.43-3.97-3.65-8.33-3.65-13.08s1.22-9.12,3.65-13.08
			c2.43-3.97,5.76-7.1,9.97-9.39c4.21-2.29,8.89-3.44,14.04-3.44c5.12,0,9.79,1.15,14,3.46c4.21,2.31,7.54,5.44,9.97,9.39
			c2.43,3.96,3.65,8.31,3.65,13.07c0,4.73-1.22,9.09-3.65,13.07c-2.43,3.98-5.76,7.14-9.99,9.47c-4.23,2.33-8.89,3.49-13.98,3.49
			C252.06,576.47,247.39,575.31,243.16,572.98z M264.03,562.37c2.12-1.2,3.81-2.85,5.07-4.96c1.26-2.1,1.89-4.42,1.89-6.93
			c0-2.52-0.64-4.82-1.91-6.92c-1.27-2.09-2.97-3.74-5.09-4.94s-4.39-1.8-6.81-1.8c-2.45,0-4.73,0.6-6.85,1.8s-3.82,2.85-5.09,4.94
			c-1.27,2.09-1.91,4.4-1.91,6.92c0,2.52,0.64,4.83,1.91,6.92c1.27,2.09,2.98,3.74,5.11,4.96c2.13,1.21,4.41,1.82,6.83,1.82
			C259.63,564.17,261.91,563.57,264.03,562.37z"/>
		<path class="st1" d="M304.48,575.58h-10.22c-1.01,0-1.51-0.48-1.51-1.43v-47.24c0-0.95,0.5-1.43,1.51-1.43h11.69
			c0.81,0,1.41,0.31,1.82,0.93l18.12,27.38v-26.88c0-0.95,0.5-1.43,1.51-1.43h10.22c1.01,0,1.51,0.48,1.51,1.43v47.24
			c0,0.95-0.5,1.43-1.51,1.43h-10.41c-0.78,0-1.39-0.31-1.82-0.93L306,545.7v28.45C306,575.1,305.49,575.58,304.48,575.58z"/>
		<path class="st1" d="M387.43,575.58h-36.17c-1.01,0-1.51-0.48-1.51-1.43v-47.24c0-0.95,0.5-1.43,1.51-1.43h35.61
			c1.01,0,1.51,0.48,1.51,1.43v8.74c0,0.95-0.5,1.43-1.51,1.43h-23.5v7.81h18.05c1.01,0,1.51,0.48,1.51,1.43v8.02
			c0,0.95-0.5,1.43-1.51,1.43h-18.05v8.24h24.07c1.01,0,1.51,0.48,1.51,1.43v8.74C388.94,575.1,388.44,575.58,387.43,575.58z"/>
		<path class="st1" d="M447.78,552.41h9.84c1.01,0,1.51,0.48,1.51,1.43v16.08c0,0.74-0.3,1.31-0.91,1.71
			c-2.37,1.54-5.06,2.74-8.08,3.58c-3.01,0.84-6.12,1.27-9.33,1.27c-5.12,0-9.79-1.17-14.02-3.49c-4.23-2.33-7.56-5.48-9.99-9.45
			c-2.43-3.97-3.65-8.33-3.65-13.08s1.22-9.12,3.65-13.08c2.43-3.97,5.76-7.1,9.97-9.39c4.21-2.29,8.89-3.44,14.04-3.44
			c3.13,0,6.12,0.45,8.99,1.35c2.86,0.9,5.45,2.17,7.78,3.82c0.43,0.31,0.64,0.67,0.64,1.07c0,0.31-0.13,0.62-0.38,0.93l-6.13,7.56
			c-0.35,0.4-0.73,0.61-1.13,0.61c-0.33,0-0.66-0.11-0.98-0.32c-1.29-0.83-2.69-1.49-4.2-1.98s-3.04-0.73-4.58-0.73
			c-2.45,0-4.73,0.6-6.85,1.8s-3.82,2.85-5.09,4.94c-1.27,2.09-1.91,4.4-1.91,6.92c0,2.54,0.64,4.89,1.91,7.04
			c1.27,2.15,2.98,3.86,5.11,5.12c2.13,1.26,4.41,1.89,6.83,1.89c2.02,0,3.83-0.25,5.45-0.75v-9.95
			C446.27,552.88,446.77,552.41,447.78,552.41z"/>
		<path class="st1" d="M478.87,572.98c-4.23-2.33-7.56-5.48-9.99-9.45c-2.43-3.97-3.65-8.33-3.65-13.08s1.22-9.12,3.65-13.08
			c2.43-3.97,5.76-7.1,9.97-9.39c4.21-2.29,8.89-3.44,14.04-3.44c5.12,0,9.79,1.15,14,3.46c4.21,2.31,7.54,5.44,9.97,9.39
			c2.43,3.96,3.65,8.31,3.65,13.07c0,4.73-1.22,9.09-3.65,13.07c-2.43,3.98-5.76,7.14-9.99,9.47c-4.23,2.33-8.89,3.49-13.98,3.49
			C487.76,576.47,483.09,575.31,478.87,572.98z M499.73,562.37c2.12-1.2,3.81-2.85,5.07-4.96c1.26-2.1,1.89-4.42,1.89-6.93
			c0-2.52-0.64-4.82-1.91-6.92c-1.27-2.09-2.97-3.74-5.09-4.94s-4.39-1.8-6.81-1.8c-2.45,0-4.73,0.6-6.85,1.8s-3.82,2.85-5.09,4.94
			c-1.27,2.09-1.91,4.4-1.91,6.92c0,2.52,0.64,4.83,1.91,6.92c1.27,2.09,2.98,3.74,5.11,4.96c2.13,1.21,4.41,1.82,6.83,1.82
			C495.33,564.17,497.62,563.57,499.73,562.37z"/>
		<path class="st1" d="M562.59,575.58h-32.62c-1.01,0-1.51-0.48-1.51-1.43v-47.24c0-0.95,0.5-1.43,1.51-1.43h10.6
			c1.01,0,1.51,0.48,1.51,1.43v36.4h20.51c1.01,0,1.51,0.48,1.51,1.43v9.41C564.1,575.1,563.59,575.58,562.59,575.58z"/>
		<path class="st1" d="M570.46,574.15v-47.24c0-0.95,0.5-1.43,1.51-1.43h18.5c5.15,0,9.86,1.09,14.13,3.28s7.66,5.19,10.14,9
			c2.48,3.81,3.73,8.06,3.73,12.75s-1.24,8.94-3.71,12.76s-5.84,6.83-10.1,9.02c-4.26,2.19-8.96,3.28-14.08,3.28h-18.62
			C570.96,575.58,570.46,575.1,570.46,574.15z M598.04,561.67c2.07-1.07,3.69-2.57,4.86-4.51c1.17-1.94,1.76-4.15,1.76-6.65
			c0-2.45-0.59-4.64-1.76-6.58c-1.17-1.94-2.8-3.45-4.88-4.53c-2.08-1.08-4.42-1.62-7.02-1.62h-6.92v25.49h6.96
			C593.64,563.28,595.97,562.74,598.04,561.67z"/>
	</g>
</g>
<g>
	<g>
		<path class="st1" d="M283.96,610.12h-1.2c-0.32,0-0.48-0.15-0.48-0.45v-13.56h-4.91c-0.32,0-0.48-0.15-0.48-0.45v-0.96
			c0-0.3,0.16-0.45,0.48-0.45h11.97c0.32,0,0.48,0.15,0.48,0.45v0.96c0,0.3-0.16,0.45-0.48,0.45h-4.91v13.56
			C284.44,609.97,284.28,610.12,283.96,610.12z"/>
		<path class="st1" d="M308.42,609.49c-1.12-0.62-2-1.47-2.67-2.54c-0.66-1.07-1-2.25-1-3.52c0-1.29,0.33-2.47,1-3.55
			c0.66-1.08,1.56-1.93,2.67-2.56c1.12-0.63,2.33-0.94,3.63-0.94c1.3,0,2.5,0.31,3.62,0.94c1.12,0.63,2.01,1.48,2.67,2.56
			c0.66,1.08,1,2.26,1,3.55c0,1.27-0.33,2.45-1,3.52c-0.67,1.07-1.56,1.92-2.69,2.54c-1.12,0.62-2.33,0.93-3.63,0.93
			S309.54,610.11,308.42,609.49z M314.65,607.88c0.8-0.45,1.44-1.07,1.92-1.86c0.48-0.79,0.72-1.66,0.72-2.6
			c0-0.95-0.24-1.82-0.72-2.62c-0.48-0.79-1.12-1.42-1.92-1.88c-0.8-0.46-1.66-0.68-2.58-0.68c-0.93,0-1.8,0.23-2.6,0.68
			c-0.81,0.46-1.45,1.08-1.93,1.88c-0.48,0.79-0.72,1.67-0.72,2.62c0,0.95,0.24,1.82,0.72,2.6c0.48,0.79,1.12,1.41,1.93,1.86
			c0.81,0.45,1.67,0.68,2.6,0.68C312.99,608.56,313.85,608.33,314.65,607.88z"/>
		<path class="st1" d="M348.34,596.61h1.09c0.32,0,0.48,0.15,0.48,0.45v12.6c0,0.3-0.16,0.45-0.48,0.45h-0.95
			c-0.15,0-0.27-0.04-0.35-0.11c-0.08-0.08-0.12-0.18-0.13-0.33l-0.05-1.44c-0.52,0.61-1.22,1.12-2.09,1.52
			c-0.88,0.4-1.79,0.61-2.73,0.61c-1.15,0-2.16-0.23-3.03-0.7s-1.54-1.13-2.01-1.99c-0.47-0.86-0.71-1.87-0.71-3.01v-7.59
			c0-0.3,0.16-0.45,0.48-0.45h1.14c0.32,0,0.48,0.15,0.48,0.45v7.4c0,0.81,0.16,1.52,0.49,2.13c0.33,0.61,0.79,1.07,1.39,1.4
			c0.6,0.33,1.29,0.49,2.08,0.49s1.53-0.18,2.2-0.53c0.68-0.35,1.21-0.83,1.61-1.45c0.4-0.61,0.6-1.3,0.6-2.05v-7.4
			C347.86,596.76,348.02,596.61,348.34,596.61z"/>
		<path class="st1" d="M377.94,597.1c0.18,0.1,0.26,0.22,0.26,0.37c0,0.08-0.02,0.17-0.07,0.25l-0.47,0.87
			c-0.1,0.17-0.22,0.25-0.37,0.25c-0.09,0-0.18-0.03-0.29-0.08c-0.7-0.35-1.38-0.52-2.02-0.52c-0.62,0-1.2,0.2-1.76,0.61
			c-0.56,0.4-1,0.96-1.34,1.68s-0.51,1.53-0.51,2.42v6.71c0,0.3-0.16,0.45-0.48,0.45h-1.09c-0.32,0-0.48-0.15-0.48-0.45v-12.6
			c0-0.3,0.16-0.45,0.48-0.45h0.94c0.32,0,0.48,0.15,0.49,0.44l0.05,1.44c0.5-0.67,1.05-1.19,1.66-1.56s1.37-0.55,2.29-0.55
			C376.09,596.38,376.99,596.62,377.94,597.1z"/>
		<path class="st1" d="M395.93,593.9v-1.08c0-0.3,0.16-0.45,0.48-0.45h1.09c0.32,0,0.48,0.15,0.48,0.45v1.08
			c0,0.3-0.16,0.45-0.48,0.45h-1.09C396.09,594.35,395.93,594.2,395.93,593.9z M397.5,610.12h-1.09c-0.32,0-0.48-0.15-0.48-0.45
			v-12.6c0-0.3,0.16-0.45,0.48-0.45h1.09c0.32,0,0.48,0.15,0.48,0.45v12.6C397.98,609.97,397.82,610.12,397.5,610.12z"/>
		<path class="st1" d="M418.69,609.93c-0.91-0.33-1.71-0.77-2.42-1.34c-0.13-0.1-0.19-0.21-0.19-0.33c0-0.1,0.04-0.2,0.13-0.3
			l0.61-0.75c0.11-0.13,0.23-0.19,0.35-0.19c0.09,0,0.2,0.04,0.32,0.12c0.59,0.42,1.23,0.75,1.92,1.02c0.69,0.26,1.38,0.4,2.09,0.4
			c0.57,0,1.07-0.09,1.52-0.27c0.44-0.18,0.79-0.43,1.04-0.75c0.25-0.32,0.37-0.7,0.37-1.13s-0.13-0.78-0.39-1.06
			c-0.26-0.28-0.63-0.51-1.12-0.69s-1.15-0.38-2-0.59c-1.34-0.33-2.42-0.82-3.23-1.47c-0.81-0.65-1.21-1.5-1.21-2.55
			c0-0.64,0.18-1.24,0.53-1.8c0.35-0.56,0.9-1.01,1.63-1.35c0.74-0.34,1.65-0.51,2.75-0.51c0.74,0,1.49,0.13,2.26,0.38
			c0.77,0.25,1.43,0.6,1.99,1.06c0.11,0.08,0.17,0.18,0.17,0.29c0,0.12-0.05,0.23-0.16,0.34l-0.65,0.73
			c-0.1,0.11-0.21,0.17-0.34,0.17c-0.1,0-0.21-0.04-0.34-0.12c-0.42-0.29-0.89-0.53-1.41-0.71c-0.52-0.18-1.06-0.27-1.6-0.27
			c-0.95,0-1.67,0.17-2.14,0.51c-0.48,0.34-0.71,0.79-0.71,1.33c0,0.35,0.11,0.66,0.32,0.92c0.22,0.26,0.57,0.5,1.07,0.72
			c0.5,0.22,1.18,0.44,2.05,0.66c1.4,0.35,2.5,0.84,3.3,1.45c0.8,0.61,1.2,1.47,1.2,2.57c0,0.72-0.2,1.39-0.6,2.01
			c-0.4,0.62-0.97,1.11-1.7,1.47c-0.74,0.37-1.58,0.55-2.54,0.55C420.55,610.42,419.59,610.26,418.69,609.93z"/>
		<path class="st1" d="M462.71,597.02c0.81,0.44,1.43,1.08,1.87,1.91c0.44,0.83,0.66,1.8,0.66,2.9v7.83c0,0.3-0.16,0.45-0.48,0.45
			h-1.09c-0.32,0-0.48-0.15-0.48-0.45v-7.65c0-0.77-0.15-1.44-0.44-2.01c-0.29-0.57-0.71-1.01-1.25-1.32
			c-0.54-0.31-1.17-0.46-1.88-0.46c-0.65,0-1.26,0.17-1.82,0.52c-0.57,0.35-1.03,0.81-1.37,1.39c-0.35,0.58-0.52,1.2-0.52,1.86v7.67
			c0,0.3-0.16,0.45-0.48,0.45h-1.09c-0.32,0-0.48-0.15-0.48-0.45v-7.65c0-0.77-0.15-1.44-0.44-2.01c-0.29-0.57-0.71-1.01-1.25-1.32
			c-0.54-0.31-1.17-0.46-1.88-0.46c-0.65,0-1.26,0.18-1.83,0.53c-0.57,0.35-1.03,0.82-1.37,1.4c-0.34,0.58-0.52,1.21-0.52,1.87v7.65
			c0,0.3-0.16,0.45-0.48,0.45h-1.09c-0.32,0-0.48-0.15-0.48-0.45v-12.6c0-0.3,0.16-0.45,0.48-0.45h0.94c0.32,0,0.48,0.15,0.49,0.44
			l0.02,1.07c0.51-0.57,1.15-1.01,1.9-1.32c0.76-0.3,1.49-0.46,2.2-0.46c1.07,0,2.01,0.22,2.81,0.67c0.8,0.44,1.43,1.08,1.87,1.9
			c0.3-0.56,0.72-1.03,1.24-1.42c0.52-0.39,1.09-0.68,1.69-0.86s1.18-0.28,1.73-0.28C460.96,596.35,461.9,596.58,462.71,597.02z"/>
	</g>
</g>
<path class="st2" d="M86.94,282.93c-3.64,3.46-6.77,7.12-9.42,10.91c-5.4-10.33-7.53-16.49-7.53-16.49S71.86,270.4,86.94,282.93z"/>
<path class="st2" d="M733.99,422.95c-4.81,3.41-9.61,6.69-14.4,9.84v-19.06c6.03-3.14,9.3-5.01,9.3-5.01L733.99,422.95z"/>
<g>
	<path class="st3" d="M155.56,346.43c8.84,16.92,29.77,49.28,72.32,80.56c-9.08-0.04-18.16-0.12-27.23-0.27
		C159.01,426.04,132.82,378.98,155.56,346.43z"/>
	<path class="st3" d="M280.8,458.69c27,13.1,59.25,24.76,97.67,33.39c-2.08,1.88-4.19,3.63-6.31,5.2
		c-16.43,12.26-37.07,9.07-56.51,9.07H140.21l34.87-47.66H280.8z"/>
	<path class="st3" d="M353.16,365.7c-44.72-10.93-80.21-31.14-101.83-45.91h139.96c-0.58,5.23-33.13,45.91-33.13,45.91H353.16z"/>
	<path class="st1" d="M622.03,447.38v59.35H477.31c-13.61-0.25-25.28-2.65-34.86-5.82C483.4,501.62,551.29,493.85,622.03,447.38z"/>
	<path class="st1" d="M384.44,371.46c11.24-17.26,26.32-31.84,44.32-42.11c23.5-13.42,46.34-14.22,72.87-14.22h82.73
		C511.38,368.09,442.15,378.65,384.44,371.46z"/>
	<g>
		<g>
			<path class="st1" d="M666.23,223.93c-1.2,5.55-2.75,11.87-4.83,18.73c-1.56,5.16-3.41,10.63-5.61,16.33
				c-0.49,1.28-1.01,2.57-1.54,3.87c-5.8,14.23-13.84,29.73-25.04,45.17c-4.86,6.68-9.96,12.9-15.27,18.7
				c-8.25,8.98-17,16.93-26.04,23.97c-9.01,7.01-18.31,13.14-27.7,18.46c-3.65,2.07-7.3,4.02-10.96,5.86
				c-14.93,7.51-29.87,13.16-43.99,17.4c-13.78,4.15-26.78,6.96-38.21,8.86c-12.04,2.02-22.36,3.02-30.02,3.54
				c-5.5,0.37-9.65,0.48-12.11,0.54c-2.08,0.02-4.14,0.06-6.23,0.05c-5.39-0.03-10.76-0.21-16.13-0.54
				c-1.95-0.13-3.9-0.28-5.84-0.44c-2.56-0.22-5.12-0.47-7.67-0.76c-13.72-1.55-27.28-4.12-40.57-7.65
				c-9.35-2.47-18.55-5.43-27.59-8.84c-26.46-9.95-51.43-23.73-73.93-40.71c-6.13-4.62-12.08-9.48-17.82-14.57
				c-9.66-8.56-18.75-17.75-27.17-27.52c-15.53-18.02-28.8-38.02-39.18-59.57c-28.28-58.74-23.41-114.13-21.1-143.38
				c-0.11,23.25-2.09,100.31,52.95,172.27c1.33,1.74,2.69,3.45,4.07,5.17c6.98,8.65,14.23,16.57,21.65,23.81
				c5.86,5.72,11.82,11.02,17.84,15.94c25.88,21.13,52.84,35.12,76.92,44.4c9.78,3.78,19.09,6.77,27.67,9.14
				c13.8,3.83,25.69,6.07,34.58,7.39c1.06,0.15,2.11,0.31,3.09,0.44c0.31,0.04,0.61,0.08,0.91,0.12c0.01,0,0.02,0,0.02,0.01
				c0.73,0.09,1.43,0.18,2.1,0.27c3.48,0.43,6.23,0.69,8.1,0.87c1.19,0.11,3.02,0.25,5.43,0.38c7.06,0.42,19.08,0.79,34.42-0.22
				c0.85-0.05,1.72-0.11,2.6-0.18c8.32-0.61,17.56-1.62,27.45-3.24c19.2-3.12,40.89-8.5,63.27-17.56c2-0.8,4.01-1.65,6.02-2.52
				c3.67-1.59,7.37-3.28,11.05-5.08c9.01-4.38,18.07-9.42,27.04-15.2c11.91-7.65,23.66-16.6,35.01-27.02
				c0.71-0.65,1.42-1.32,2.13-1.98c0.99-0.94,1.98-1.88,2.94-2.84c17.23-16.7,30.22-33.96,39.96-49.55
				c1.58-2.53,3.06-4.99,4.47-7.41c2.19-3.77,4.18-7.39,5.99-10.86C662.02,232.94,664.3,228.2,666.23,223.93z"/>
			<path class="st1" d="M834.41,190.57l-3.23,4.8c-0.77,1.14-2.35,1.38-3.41,0.5c-9.4-7.78-49.64-40.7-61.48-44.51
				c-1.13-0.37-2.36,0.19-2.84,1.28l-15.42,34.77c-0.32,0.72-0.26,1.55,0.18,2.22l16.3,24.87c0.54,0.83,0.5,1.91-0.09,2.69
				l-2.66,3.48c-0.71,0.94-1.99,1.2-3,0.6l-15.11-8.7c-1.3-0.75-2.96-0.08-3.38,1.36c-13.32,45.48-36.17,86.36-65.96,120.6
				c-0.13,0.14-0.24,0.29-0.37,0.43c-22.59,25.88-49.16,47.96-78.59,65.33c-6.31,3.73-12.76,7.25-19.33,10.54
				c-25.12,12.58-52.01,21.88-80.05,27.4c-1.26,0.25-2.53,0.49-3.79,0.72c-13.12,2.42-26.51,4.01-40.05,4.73
				c-1.92,0.1-3.85,0.19-5.77,0.25c-3.13,0.12-6.25,0.17-9.37,0.19c-27.42,0.12-54.03-3.4-79.41-10
				c-31.52-8.2-61.14-21.16-88.01-37.84c-20.45-12.69-39.32-27.53-56.22-44.06c-32.62-31.89-57.96-70.09-73.41-111.28
				c-28.23-75.26-17.36-144.4-9.24-178.8c-6.5,32.9-12.09,87.09,7.34,146.96c13.24,40.83,36.83,80.31,68.34,113.97
				c9.97,10.65,20.74,20.73,32.23,30.07c6.96,5.67,14.19,11.06,21.66,16.15l0,0c27.59,18.82,58.55,33.57,92,42.65
				c5.86,1.59,11.78,3,17.78,4.23c0.01,0,0.01,0,0.02,0c7.51,1.54,15.12,2.79,22.85,3.75c6.23,0.77,12.52,1.34,18.88,1.71
				c9.63,0.55,19.39,0.64,29.28,0.22c0.29-0.01,0.59-0.01,0.88-0.03c0.47-0.02,0.94-0.04,1.41-0.07c0,0,0.01,0,0.01,0
				c9.39-0.46,18.7-1.37,27.9-2.7c30.77-4.44,60.34-13.62,87.84-26.9c1.41-0.68,2.81-1.37,4.2-2.07c4.33-2.17,8.61-4.44,12.83-6.82
				c34.77-19.55,65.69-45.87,90.82-77.46c2.63-3.31,5.21-6.69,7.71-10.11c19.21-26.28,34.55-55.86,45-88
				c0.42-1.29-0.35-2.69-1.67-2.98c-5.24-1.2-9.68-0.94-14.86-2.05c-1.48-0.31-2.29-1.92-1.64-3.29l2.1-4.37
				c0.28-0.58,0.79-1.02,1.39-1.21l24.08-7.58c0.77-0.24,1.36-0.87,1.56-1.66l9.61-38.58c0.15-0.62,0.04-1.28-0.29-1.82l-1.46-2.28
				c-0.45-0.7-1.23-1.11-2.06-1.06l-74.82,3.22c-1.58,0.07-2.77-1.44-2.32-2.97l2-6.93c0.21-0.73,0.77-1.31,1.49-1.55l66.26-22.18
				c0.69-0.23,1.23-0.76,1.46-1.45l3.63-10.54c0.19-0.57,0.6-1.04,1.13-1.31c0.17-0.08,0.35-0.15,0.53-0.2
				c0.88-0.21,1.86,0.12,2.42,0.9l1,1.37c0.32,0.44,0.46,0.95,0.44,1.49l-0.19,3.86c-0.11,1.89,1.94,3.1,3.53,2.11l10.84-6.7
				c0.48-0.29,0.83-0.77,1-1.31l16.66-55.58c0.17-0.53,0.5-0.98,0.95-1.28l13.06-8.51c1.06-0.7,2.47-0.42,3.18,0.62l8.76,12.83
				c0.41,0.58,0.51,1.31,0.3,1.99l-19.25,61.9c-0.2,0.63-0.13,1.3,0.2,1.85l4.04,7.01c0.92,1.59,3.24,1.53,4.07-0.09l1.7-3.27
				c0.24-0.47,0.63-0.84,1.11-1.06l2.22-0.97c1.05-0.47,2.28-0.1,2.9,0.86l1.25,1.97c0.36,0.56,0.46,1.26,0.28,1.9l-3.14,10.91
				c-0.2,0.69-0.07,1.43,0.35,2.01l40.85,56.16C834.95,188.69,834.95,189.76,834.41,190.57z"/>
			<path class="st1" d="M747.1,279.69c-15.57,37.13-36.87,70.7-62.55,99.62c-12.38,13.95-25.77,26.81-40.03,38.47
				c-5.13,4.2-10.38,8.24-15.74,12.12c-12.89,9.33-26.38,17.74-40.39,25.12c-19.57,10.32-40.14,18.66-61.42,24.8
				c-9.39,2.7-18.91,4.98-28.56,6.8c-9.81,1.86-19.74,3.25-29.77,4.17c-24.76,2.26-49.45,1.52-73.65-1.99
				c-8.56-1.23-17.06-2.82-25.48-4.74c-49.31-11.24-95.91-33.99-136.16-66.12c-49.56-39.55-89.5-93.32-113.03-157.38
				c23.77,54.29,59.87,100.25,103.72,135.2c41.22,32.85,89.28,55.96,140.39,67.08c28.64,6.25,58.23,8.72,88.12,7.04
				c1.29-0.08,2.56-0.15,3.85-0.24c7.72-0.53,15.38-1.33,22.99-2.4c7.99-1.12,15.9-2.53,23.74-4.23c28.37-6.14,55.66-16,81.29-29.14
				c10.12-5.19,19.99-10.89,29.55-17.08c17.89-11.58,34.75-24.84,50.33-39.64c5.45-5.18,10.75-10.54,15.88-16.09
				c25.21-27.21,46.39-58.74,62.33-93.71C744.05,271.45,745.58,275.57,747.1,279.69z"/>
		</g>
	</g>
	<path class="st2" d="M258.14,426.99c-10.08,0.02-20.17,0.03-30.25,0c-42.55-31.28-63.48-63.64-72.32-80.56
		c1.93-2.75,4.2-5.41,6.84-7.93c7.22,5.99,18.61,18.11,36.51,41.86C212.29,398.1,234.08,413.75,258.14,426.99z"/>
	<path class="st2" d="M391.23,477.86c-3.81,5.26-8.19,10.08-12.76,14.22c-38.42-8.63-70.67-20.29-97.67-33.39h41.72
		c2.01,0,4.22-0.04,6.47-0.2c31.63,11.56,55.92,17.78,55.92,17.78C387,476.84,389.1,477.37,391.23,477.86z"/>
	<path class="st2" d="M258.14,426.99c23.37,12.87,48.88,23.47,70.84,31.49c-2.24,0.17-4.45,0.2-6.47,0.2H280.8
		c-20.55-9.97-38.05-20.76-52.91-31.7C237.97,427.02,248.05,427.01,258.14,426.99z"/>
	<path class="st2" d="M622.03,433.53v13.85c-70.74,46.47-138.62,54.24-179.58,53.53h-0.01c-20.69-6.84-31.68-17.23-31.68-17.23
		c0.41-0.72,0.79-1.43,1.17-2.14c52.72,6.54,107.78-6.87,149.22-21.65h0.01c0.92-0.01,1.82-0.02,2.74-0.04l-0.02-0.94
		C590.95,449.08,611.88,438.82,622.03,433.53z"/>
	<path class="st2" d="M410.76,483.68c0,0,10.99,10.39,31.68,17.23c-24.53-0.42-39.41-3.89-39.41-3.89
		c-8.46-1.5-16.64-3.16-24.57-4.93c4.57-4.13,8.95-8.96,12.76-14.22c6.84,1.6,13.75,2.81,20.71,3.68
		C411.55,482.25,411.17,482.96,410.76,483.68z"/>
	<path class="st2" d="M563.89,458.91l0.02,0.94c-0.92,0.01-1.82,0.02-2.74,0.04C562.08,459.56,562.98,459.23,563.89,458.91z"/>
	<path class="st2" d="M353.16,365.7h-45.35c-28.55-12.83-67.2-31.6-83.64-45.9c2.22-0.01,4.45-0.01,6.71-0.01h20.44
		C272.96,334.56,308.45,354.77,353.16,365.7z"/>
	<path class="st2" d="M227.89,301.81c0,0,8.34,7.66,23.44,17.97h-20.44c-2.26,0-4.5,0-6.71,0.01c-3.58-3.11-6.1-6.01-7.24-8.59
		C207.01,288.7,227.89,301.81,227.89,301.81z"/>
	<path class="st2" d="M607.62,315.13c-10.03,8.09-41.64,32.36-83.16,52.31h-16.25c-24.39,0-53.16-1.79-68.24,21.93
		c-1.11,1.76-2.08,3.6-2.88,5.51c-13.75,1.78-27.69,2.22-41.58,0.86c-9.6-8.03-18.17-12.03-18.17-12.03
		c2.16-4.21,4.53-8.3,7.1-12.25c57.71,7.19,126.94-3.37,199.92-56.33H607.62z"/>
	<path class="st2" d="M377.34,383.71c0,0,8.57,4,18.17,12.03c-18.16-1.75-36.22-6.55-53.62-15.38c0,0-14.71-5.97-34.07-14.67h45.35
		c9.98,2.44,20.42,4.42,31.28,5.77C381.87,375.42,379.5,379.5,377.34,383.71z"/>
	<path class="st2" d="M508.21,367.44h16.25c-26.16,12.58-56.26,23.44-87.37,27.44c0.8-1.91,1.77-3.75,2.88-5.51
		C455.06,365.65,483.83,367.44,508.21,367.44z"/>
</g>
<path class="st2" d="M704.39,246.95c0,0-1.6,1.37-4.63,3.81h-32.02c7.92-5.74,15.87-11.85,23.85-18.34L704.39,246.95z"/>
<g>
	<g>
		
			<text transform="matrix(1.0613 0 0 1 1096.3245 542.207)" class="st1" style="font-family:'CocogooseProTrial-Regular'; font-size:77.3328px;">STONE GOLD</text>
	</g>
	<g>
		
			<text transform="matrix(1.0613 0 0 1 1254.6682 582.4883)" class="st1" style="font-family:'CocogooseProTrial-Light'; font-size:24.513px; letter-spacing:16.02;">Tourism</text>
	</g>
	<path class="st2" d="M1109.95,244.94c0,0,2.61,2.88,7.6,7.97c-7.95,8.09-12.73,17.34-14.84,26.88
		c-6.41-10.89-9.36-17.66-9.36-17.66L1109.95,244.94z"/>
	<g>
		<g>
			<path class="st0" d="M1212.86,391.18c38.25,23.3,86.91,41.85,147.68,46.84c-18.64,11.99-41.45,8.62-62.99,8.62h-204.2
				l40.59-55.47H1212.86z"/>
			<path class="st0" d="M1388.13,409.68c-1.24,1.89-2.55,3.75-3.92,5.56c-24.38-0.01-48.48-4.78-70.93-16.46
				c-4.79-2.49-9.5-5.02-14.16-7.59h6.41c2.41,0,5.06-0.04,7.75-0.25C1338.19,402.98,1363.43,408.6,1388.13,409.68z"/>
			<path class="st0" d="M1163.27,353.96c-40.45-0.92-68.24-39.47-60.56-74.16C1113.1,297.45,1132.56,325.91,1163.27,353.96z"/>
			<path class="st0" d="M1176.85,287.72c-3.7,2.56-7.01,6.29-7.4,10.78c-0.08,0.85-0.04,1.69,0.09,2.52
				c-24.67-20.93-42.57-38.47-51.99-48.1c1.71-1.75,3.56-3.43,5.57-5.06c9.75-7.91,19.96-12.4,30.66-14.97l0.14,12.06
				C1153.92,244.94,1149.96,257.64,1176.85,287.72z"/>
			<path class="st0" d="M1255.43,354.23c-3.08,0.01-6.16,0.02-9.24,0.03c-2.29,0-4.58,0.01-6.87,0.02h-0.02
				c-19.08-13.03-36.45-26.13-51.85-38.48c5.9,0.72,12.47,0.3,18.32-0.05C1218.81,327.03,1235.1,339.82,1255.43,354.23z"/>
			<path class="st0" d="M1385.58,229.51c-0.68,6.09-38.56,53.44-38.56,53.44h-127.85c-20.88-22.91-34.42-43.57-40.27-53.17
				c6.5-0.27,13.17-0.27,20-0.27H1385.58z"/>
			<path class="st0" d="M1400.22,377.35c-28.06-1.67-53.63-8.36-76.63-18.09c-0.98-0.82-1.99-1.59-3.01-2.33
				c-2.44-1.76-5.61-2.7-9.1-3.16c-22.15-10.77-41.69-24.23-58.56-38.35h68.39c26.86,0.58,54.75,9.55,70.84,32.27
				C1398.8,357.06,1401.04,367.23,1400.22,377.35z"/>
			<path class="st1" d="M1511.74,307.98l91.35-0.43c-32.11,23.03-62.56,39.55-91.29,50.74h-0.01l-45.04-0.25L1511.74,307.98z"/>
			<path class="st1" d="M1603.12,324.01c4.82-4.02,7.41-6.41,7.41-6.41l-1.46-10.09l21.79-0.1L1603.12,324.01z"/>
			<path class="st1" d="M1654.13,307.3v139.79H1485.7c-20.81-0.38-37.7-5.08-50.35-10.45c30.18-4.43,73.56-15.67,117.4-43.68
				c11.25-0.14,22.49-0.28,33.74-0.42l-0.48-24.28c18.97-16.3,37.42-36.32,54.25-60.88L1654.13,307.3z"/>
			<path class="st1" d="M1413.71,409.24c23.99-1.83,47.15-7.49,68.64-15.15c-22.34,8.88-46.3,16.01-70.51,19.25
				C1412.51,411.96,1413.13,410.59,1413.71,409.24z"/>
			<path class="st1" d="M1616.11,231.52l-5.58,9.98l32.98,14.18l-21.16,29.3c-1.07,1.48-14.68,0-16.44,0h-84.24
				c-28.39,0-61.86-2.1-79.42,25.53c-7.54,11.87-8.99,27.12-5.02,40.61c2.6,8.85,7.39,16.94,13.58,23.81
				c-10.21,1.56-20.17,2.44-29.84,2.72c0.75-49.27-51.61-73.73-51.61-73.73c13.49-26.33,34.11-48.57,59.84-63.27
				c27.35-15.62,53.94-16.56,84.81-16.56h140.78l-3.15,7.42H1616.11z"/>
		</g>
		<path class="st4" d="M1633.67,286.93c3.94,0,7.13,3.19,7.13,7.13c0,1.57-0.51,3.02-1.37,4.19l-0.05,0.07l-0.1,0.13
			c-57.79,79.27-151.35,130.8-256.97,130.8c-124.94,0-233.03-72.1-284.96-176.94c-31.84,22.17-56.58,51.71-72.96,85.14l-0.05,0.12
			l-0.03,0.04c-0.54,1.1-1.45,2.05-2.65,2.61c-2.79,1.3-6.09,0.09-7.4-2.69c-0.43-0.93-0.58-1.92-0.5-2.88
			c-2.16-63,32.75-124.16,93.48-152.48c60.73-28.32,130.02-15.74,176.89,26.41c0.79,0.54,1.46,1.3,1.89,2.23
			c1.3,2.79,0.09,6.1-2.69,7.4c-1.2,0.56-2.5,0.65-3.7,0.35l-0.04-0.01l-0.12-0.04c-36.03-8.91-74.44-8.97-111.78,1.08
			c41.96,97.65,138.99,166.05,252.01,166.05c83.29,0,157.91-37.15,208.2-95.77C1629.2,288.09,1631.3,286.93,1633.67,286.93
			L1633.67,286.93z M1563.66,307.26c-42.08,25.22-91.32,39.74-143.96,39.74c-52.63,0-101.87-14.51-143.95-39.74
			c40.3,29.67,90.07,47.22,143.95,47.22S1523.36,336.94,1563.66,307.26z"/>
		<path class="st5" d="M1755.43,181.51l23.82,41.71c0.14,0.24,0.13,0.51-0.02,0.75l-6.47,10.36l-3.32,5.31l-3.1,4.97
			c-0.21,0.34-0.65,0.44-1,0.23l-4.51-2.82c-0.28-0.18-0.4-0.51-0.31-0.81l1.76-6.14l-27.66-21.62
			C1741.59,203.17,1748.55,192.52,1755.43,181.51L1755.43,181.51z M1789.04,48.02c-16.79-10.49-42.37,23.88-73.32,72.3l-112.95-7.38
			c-0.27-0.02-0.52,0.1-0.67,0.34l-6.47,10.36l-3.32,5.31l-3.1,4.96c-0.21,0.34-0.11,0.79,0.24,1l4.51,2.82
			c0.28,0.17,0.63,0.14,0.87-0.08l4.74-4.28l83.48,40.69c-12.39,22.58-21.79,43.46-27.67,59.96l-34.35,1.05
			c-0.26,0.01-0.46,0.14-0.6,0.35l-2.8,4.48c-0.12,0.18-0.14,0.38-0.09,0.59c0.07,0.21,0.19,0.37,0.4,0.45l31.36,13.93
			c-1.64,8.24-1.36,13.61,1.03,15.1c8.74,5.46,51.39-36.97,89.69-98.27C1778.33,110.43,1808.7,60.31,1789.04,48.02z"/>
		<path class="st6" d="M1400.22,377.35c-0.9,11.19-5.54,22.33-12.09,32.33c-24.7-1.08-49.94-6.71-74.84-18.75
			c11.05-0.85,22.57-4.49,18.92-19.34c-1.22-4.96-4.64-9.01-8.61-12.33C1346.59,368.98,1372.16,375.67,1400.22,377.35z"/>
		<path class="st6" d="M1311.49,353.77c-7.84-1.05-17.31,0.32-23.9,0.35c-10.72,0.04-21.44,0.08-32.15,0.11
			c-20.34-14.41-36.62-27.2-49.66-38.49c2.83-0.17,5.5-0.32,7.83-0.32h39.33C1269.8,329.55,1289.34,343,1311.49,353.77z"/>
		<path class="st6" d="M1219.17,282.95h-8.62c-11.28,0-23.92-1.94-33.66,4.74c-0.02,0.01-0.03,0.02-0.04,0.03
			c-26.89-30.08-22.92-42.78-22.92-42.78l-0.14-12.06c8.09-1.94,16.46-2.76,25.11-3.1C1184.75,239.38,1198.3,260.03,1219.17,282.95z
			"/>
		<path class="st6" d="M1178.9,229.78c-8.65,0.35-17.02,1.17-25.11,3.1l-0.07-5.93l21.85-2.86
			C1175.57,224.1,1176.68,226.15,1178.9,229.78z"/>
		<path class="st6" d="M1252.93,315.42h-39.33c-2.33,0-5,0.15-7.83,0.32c-12.3-10.65-21.72-19.96-28.93-28.02
			c0.02-0.01,0.03-0.02,0.04-0.03c9.74-6.68,22.38-4.74,33.66-4.74h8.62C1228.86,293.58,1240.13,304.7,1252.93,315.42z"/>
		<path class="st6" d="M1313.29,390.93c-7.38-3.57-14.74-7.7-22.04-12.45c-13.15-8.55-25.05-16.62-35.81-24.25
			c10.71-0.03,21.43-0.07,32.15-0.11c6.6-0.03,16.07-1.4,23.9-0.35c3.95,1.92,7.99,3.75,12.11,5.49c3.97,3.32,7.39,7.36,8.61,12.33
			C1335.85,386.44,1324.34,390.07,1313.29,390.93z"/>
		<path class="st6" d="M1610.53,317.6c0,0-21.33,19.72-55.49,40.93h-0.01l-43.22-0.25c28.73-11.2,59.17-27.71,91.29-50.74l5.97-0.03
			L1610.53,317.6z"/>
		<path class="st6" d="M1483.9,393.47c-0.52,0.21-1.03,0.41-1.55,0.62c-21.49,7.66-44.65,13.32-68.64,15.15
			c4.95-11.47,7.1-22,7.25-31.59c9.67-0.28,19.63-1.16,29.84-2.72c3.24,3.6,6.86,6.87,10.76,9.73
			C1468.08,389.47,1475.73,392.12,1483.9,393.47z"/>
		<path class="st6" d="M1420.96,377.65c-0.14,9.59-2.3,20.12-7.25,31.59c-8.44,0.65-16.98,0.82-25.59,0.44
			c6.55-10,11.19-21.15,12.09-32.33C1406.99,377.75,1413.9,377.86,1420.96,377.65z"/>
		<path class="st6" d="M1555.03,358.53c-19.88,12.35-44.1,25.2-71,34.96c-0.56,0.2-1.11,0.4-1.67,0.6c0.52-0.2,1.03-0.41,1.55-0.62
			c-8.18-1.35-15.82-4-22.35-8.81c-3.9-2.87-7.52-6.13-10.76-9.73c19.38-2.96,39.72-8.34,61-16.64h0.01L1555.03,358.53z"/>
		<path class="st6" d="M1609.07,307.51l-5.97,0.03c1.79-1.29,3.59-2.6,5.4-3.92L1609.07,307.51z"/>
		<path class="st2" d="M1552.75,392.96c-43.84,28.01-87.22,39.25-117.4,43.68c-17.76-7.53-27.11-16.37-27.11-16.37
			c1.32-2.35,2.52-4.66,3.6-6.93c24.77-3.31,49.28-10.7,72.06-19.86c0.04,0,0.08,0.01,0.12,0.02c17.52,2.87,37.44-0.14,53.99-0.35
			C1542.93,393.08,1547.84,393.02,1552.75,392.96z"/>
		<path class="st2" d="M1384.21,415.24c-6.19,8.19-13.54,15.37-20.89,20.86c-0.91,0.68-1.84,1.33-2.78,1.93
			c-60.77-5-109.42-23.55-147.68-46.84h86.26c4.66,2.57,9.38,5.1,14.16,7.59C1335.73,410.46,1359.83,415.23,1384.21,415.24z"/>
		<path class="st2" d="M1239.3,354.27c-25.2,0.05-50.4,0.12-75.59-0.3c-0.14,0-0.28-0.01-0.41-0.01h-0.01l-0.01-0.01
			c-30.71-28.05-50.18-56.51-60.56-74.16c2.11-9.54,6.89-18.79,14.84-26.88c9.42,9.63,27.31,27.18,51.99,48.1
			c0.42,2.92,1.95,5.69,3.77,8.08c3.15,4.13,8.31,5.97,14.13,6.69l0.01,0.01C1202.85,328.14,1220.22,341.24,1239.3,354.27z"/>
		<path class="st2" d="M1173.31,309.09c-1.82-2.38-3.35-5.16-3.77-8.08c5.62,4.76,11.59,9.7,17.9,14.76
			C1181.62,315.06,1176.47,313.22,1173.31,309.09z"/>
		<path class="st2" d="M1299.12,391.18h-86.26c-19.03-11.59-35.48-24.35-49.57-37.21c0.14,0,0.28,0.01,0.41,0.01
			c25.19,0.41,50.4,0.35,75.59,0.3h0.02C1257.76,366.86,1277.78,379.4,1299.12,391.18z"/>
		<path class="st2" d="M1435.35,436.64c-24.74,3.64-40.61,2.72-40.61,2.72c-11.8,0.03-23.2-0.42-34.2-1.34
			c0.94-0.6,1.87-1.24,2.78-1.93c7.36-5.49,14.7-12.68,20.89-20.86c9.2,0.01,18.43-0.67,27.63-1.9c-1.08,2.27-2.28,4.58-3.6,6.93
			C1408.24,420.27,1417.6,429.1,1435.35,436.64z"/>
		<path class="st2" d="M1640.26,307.37c-16.84,24.56-35.28,44.58-54.25,60.88l-0.19-9.54l-30.78-0.18
			c21.83-13.55,38.42-26.5,47.55-34.09c0.27-0.22,0.43-0.36,0.49-0.4c0.01-0.01,0.02-0.02,0.02-0.02l0.03-0.02l27.73-16.6
			L1640.26,307.37z"/>
		<path class="st2" d="M1602.59,324.44c-9.13,7.59-25.72,20.54-47.55,34.09l30.78,0.18l0.19,9.54
			c-10.98,9.42-22.13,17.6-33.26,24.71c-4.91,0.06-9.83,0.13-14.74,0.19c-16.55,0.21-36.47,3.22-53.99,0.35
			c-0.04-0.01-0.08-0.02-0.12-0.02C1547.09,368.05,1597.02,328.89,1602.59,324.44z"/>
		<path class="st2" d="M1646.38,298.12c-2.01,3.15-4.06,6.23-6.12,9.25l-9.4,0.04L1646.38,298.12z"/>
		<polygon class="st6" points="1666.31,224.1 1643.51,255.68 1610.53,241.5 1616.11,231.52 1651.62,231.52 1654.78,224.1 		"/>
		<polygon class="st6" points="1670.06,212.41 1663.46,247.42 1645.53,256.55 1643.51,255.68 1666.31,224.1 1654.78,224.1 
			1657.88,216.81 		"/>
	</g>
</g>
<rect x="584.36" y="719.6" class="st3" width="162.74" height="100.8"/>
</svg>
